<?xml version="1.0" ?>
<svg fill="#000000" width="800px" height="800px" viewBox="0 0 64 64" data-name="Layer 1" id="Layer_1" xmlns="http://www.w3.org/2000/svg"><title/><path d="M51.25,59h-27a2,2,0,0,1-2-2V42.5a2,2,0,0,1,4,0V55h23V24.82L43.52,19H26.25V32a2,2,0,0,1-4,0V17a2,2,0,0,1,2-2H44.36a2,2,0,0,1,1.42.6l6.9,7a2,2,0,0,1,.57,1.4V57A2,2,0,0,1,51.25,59Z"/><path d="M24.25,49H12.75a2,2,0,0,1-2-2V7a2,2,0,0,1,2-2h27a2,2,0,0,1,2,2V17a2,2,0,0,1-2,2H26.25V31a2,2,0,0,1-4,0V17a2,2,0,0,1,2-2h13.5V9h-23V45h7.5V43.14a2,2,0,0,1,4,0V47A2,2,0,0,1,24.25,49Z"/></svg>